<mxfile host="app.diagrams.net" modified="2024-01-26T20:37:54.108Z" agent="Mozilla/5.0 (Windows NT 10.0; Win64; x64) AppleWebKit/537.36 (KHTML, like Gecko) Chrome/120.0.0.0 Safari/537.36" etag="FFbvfrGqu2hXF8kWW9t9" version="23.0.2" type="google">
  <diagram name="Page-1" id="sBUBnOYBMikLlReBKfc7">
    <mxGraphModel grid="1" page="1" gridSize="10" guides="1" tooltips="1" connect="1" arrows="1" fold="1" pageScale="1" pageWidth="850" pageHeight="1100" math="0" shadow="0">
      <root>
        <mxCell id="0" />
        <mxCell id="1" parent="0" />
        <mxCell id="6my6h3i6SvbROeXocw98-1" value="یادآوری مهلت پاسخ" style="swimlane;html=1;childLayout=stackLayout;resizeParent=1;resizeParentMax=0;horizontal=0;startSize=20;horizontalStack=0;" vertex="1" parent="1">
          <mxGeometry x="76" y="120" width="590" height="160" as="geometry" />
        </mxCell>
        <mxCell id="6my6h3i6SvbROeXocw98-10" value="ساعت" style="swimlane;html=1;startSize=20;horizontal=0;" vertex="1" parent="6my6h3i6SvbROeXocw98-1">
          <mxGeometry x="20" width="570" height="90" as="geometry" />
        </mxCell>
        <mxCell id="oZZ-AW4yjHq8p-bLRzNx-9" value="&lt;font style=&quot;font-size: 14px;&quot;&gt;درخواست ارسال اعلان یادآور به کاربر&lt;/font&gt;" style="html=1;align=center;verticalAlign=top;rounded=1;absoluteArcSize=1;arcSize=13;dashed=0;whiteSpace=wrap;" vertex="1" parent="6my6h3i6SvbROeXocw98-10">
          <mxGeometry x="263" y="20" width="146" height="40" as="geometry" />
        </mxCell>
        <mxCell id="C-oZvDuWFo_2Xl80Dx-S-2" style="edgeStyle=orthogonalEdgeStyle;rounded=0;orthogonalLoop=1;jettySize=auto;html=1;" edge="1" parent="6my6h3i6SvbROeXocw98-10" source="C-oZvDuWFo_2Xl80Dx-S-1" target="oZZ-AW4yjHq8p-bLRzNx-9">
          <mxGeometry relative="1" as="geometry">
            <mxPoint x="214" y="40" as="targetPoint" />
          </mxGeometry>
        </mxCell>
        <mxCell id="C-oZvDuWFo_2Xl80Dx-S-1" value="" style="shape=collate;html=1;" vertex="1" parent="6my6h3i6SvbROeXocw98-10">
          <mxGeometry x="104" y="20" width="40" height="40" as="geometry" />
        </mxCell>
        <mxCell id="C-oZvDuWFo_2Xl80Dx-S-3" value="فرارسیدن تاریخ یادآور یا مهلت پاسخ نامه‌ای" style="text;html=1;align=center;verticalAlign=middle;resizable=0;points=[];autosize=1;strokeColor=none;fillColor=none;" vertex="1" parent="6my6h3i6SvbROeXocw98-10">
          <mxGeometry x="29" y="56" width="190" height="30" as="geometry" />
        </mxCell>
        <mxCell id="6my6h3i6SvbROeXocw98-26" style="edgeStyle=orthogonalEdgeStyle;rounded=0;orthogonalLoop=1;jettySize=auto;html=1;" edge="1" parent="6my6h3i6SvbROeXocw98-1">
          <mxGeometry relative="1" as="geometry">
            <mxPoint x="925" y="229" as="sourcePoint" />
          </mxGeometry>
        </mxCell>
        <mxCell id="oZZ-AW4yjHq8p-bLRzNx-1" value="سامانه" style="swimlane;html=1;startSize=20;horizontal=0;" vertex="1" parent="6my6h3i6SvbROeXocw98-1">
          <mxGeometry x="20" y="90" width="570" height="70" as="geometry" />
        </mxCell>
        <mxCell id="oZZ-AW4yjHq8p-bLRzNx-12" style="edgeStyle=orthogonalEdgeStyle;rounded=0;orthogonalLoop=1;jettySize=auto;html=1;" edge="1" parent="oZZ-AW4yjHq8p-bLRzNx-1" source="oZZ-AW4yjHq8p-bLRzNx-3" target="oZZ-AW4yjHq8p-bLRzNx-6">
          <mxGeometry relative="1" as="geometry" />
        </mxCell>
        <mxCell id="oZZ-AW4yjHq8p-bLRzNx-3" value="ارسال اعلان یادآور به کاربر" style="html=1;align=center;verticalAlign=top;rounded=1;absoluteArcSize=1;arcSize=13;dashed=0;whiteSpace=wrap;" vertex="1" parent="oZZ-AW4yjHq8p-bLRzNx-1">
          <mxGeometry x="266" y="20" width="140" height="40" as="geometry" />
        </mxCell>
        <mxCell id="oZZ-AW4yjHq8p-bLRzNx-6" value="" style="ellipse;html=1;shape=endState;fillColor=strokeColor;" vertex="1" parent="oZZ-AW4yjHq8p-bLRzNx-1">
          <mxGeometry x="494" y="25" width="30" height="30" as="geometry" />
        </mxCell>
        <mxCell id="oZZ-AW4yjHq8p-bLRzNx-11" style="edgeStyle=orthogonalEdgeStyle;rounded=0;orthogonalLoop=1;jettySize=auto;html=1;" edge="1" parent="6my6h3i6SvbROeXocw98-1" source="oZZ-AW4yjHq8p-bLRzNx-9" target="oZZ-AW4yjHq8p-bLRzNx-3">
          <mxGeometry relative="1" as="geometry" />
        </mxCell>
      </root>
    </mxGraphModel>
  </diagram>
</mxfile>
